<?xml version="1.0" encoding="UTF-8" standalone="no"?>
<!-- Created with Inkscape (http://www.inkscape.org/) -->
<svg
   xmlns:dc="http://purl.org/dc/elements/1.1/"
   xmlns:cc="http://web.resource.org/cc/"
   xmlns:rdf="http://www.w3.org/1999/02/22-rdf-syntax-ns#"
   xmlns:svg="http://www.w3.org/2000/svg"
   xmlns="http://www.w3.org/2000/svg"
   xmlns:sodipodi="http://sodipodi.sourceforge.net/DTD/sodipodi-0.dtd"
   xmlns:inkscape="http://www.inkscape.org/namespaces/inkscape"
   version="1.0"
   width="751"
   height="601"
   viewBox="0 0 750 599.99902"
   id="Layer_1"
   xml:space="preserve"
   sodipodi:version="0.32"
   inkscape:version="0.45"
   sodipodi:docname="I-279.svg"
   sodipodi:docbase="C:\Documents and Settings\ltljltlj\Desktop\Signs\Interstate Shields"
   inkscape:output_extension="org.inkscape.output.svg.inkscape"
   sodipodi:modified="true"><metadata
   id="metadata36"><rdf:RDF><cc:Work
       rdf:about=""><dc:format>image/svg+xml</dc:format><dc:type
         rdf:resource="http://purl.org/dc/dcmitype/StillImage" /></cc:Work></rdf:RDF></metadata><sodipodi:namedview
   inkscape:window-height="961"
   inkscape:window-width="1046"
   inkscape:pageshadow="2"
   inkscape:pageopacity="0.0"
   guidetolerance="10.0"
   gridtolerance="10.0"
   objecttolerance="10.0"
   borderopacity="1.0"
   bordercolor="#666666"
   pagecolor="#ffffff"
   id="base"
   width="751px"
   height="601px"
   inkscape:zoom="1.275"
   inkscape:cx="374.99999"
   inkscape:cy="299.99999"
   inkscape:window-x="-7"
   inkscape:window-y="0"
   inkscape:current-layer="Layer_1" /><defs
   id="defs62">
	
	
	
	
</defs>
<g
   transform="matrix(0.9986685,0,0,0.9986701,0.4993342,0.3989715)"
   id="g5"
   style="fill:#ffffff;fill-opacity:1;stroke:#000000;stroke-width:0.99999899;stroke-miterlimit:4;stroke-dasharray:none;stroke-opacity:1">
		<path
   id="path7"
   style="fill:#ffffff;fill-opacity:1;stroke:#000000;stroke-width:0.99999899;stroke-miterlimit:4;stroke-dasharray:none;stroke-opacity:1"
   d="M 38.915039,0 C 92.236328,15.525391 148.625,23.849609 206.95801,23.849609 C 265.29053,23.849609 321.6792,15.525391 375,0.0004883 C 428.32031,15.525391 484.70898,23.849609 543.04199,23.849609 C 601.375,23.849609 657.76367,15.525391 711.08398,0 C 736.06445,54.121094 750,114.3877 750,177.90918 C 750,395.71777 586.16016,575.25391 375,599.99902 C 163.83887,575.25391 0,395.71777 0,177.90918 C 0,114.3877 13.935059,54.121094 38.915039,0 z " />
		
			<path
   id="path9"
   style="fill:#ffffff;fill-opacity:1;stroke:#000000;stroke-width:0.99999899;stroke-linecap:round;stroke-linejoin:round;stroke-miterlimit:4;stroke-dasharray:none;stroke-opacity:1"
   d="M 38.915039,0 C 92.236328,15.525391 148.625,23.849609 206.95801,23.849609 C 265.29053,23.849609 321.6792,15.525391 375,0.0004883 C 428.32031,15.525391 484.70898,23.849609 543.04199,23.849609 C 601.375,23.849609 657.76367,15.525391 711.08398,0 C 736.06445,54.121094 750,114.3877 750,177.90918 C 750,395.71777 586.16016,575.25391 375,599.99902 C 163.83887,575.25391 0,395.71777 0,177.90918 C 0,114.3877 13.935059,54.121094 38.915039,0 z " />
	</g><g
   transform="matrix(1.0056032,0,0,1.0101352,-2.1013652,-3.7018951)"
   id="g11"
   style="fill:#003f87;fill-opacity:1">
		<path
   id="path13"
   style="fill:#003f87;fill-opacity:1"
   d="M 15,177.90918 C 15,165.12744 15.584961,152.48242 16.729004,139.99902 L 733.27051,139.99902 C 734.41504,152.48242 735,165.12744 735,177.90918 C 735,387.42285 577.85547,560.22852 375,584.89062 C 172.14453,560.22852 15,387.42285 15,177.90918 z " />
	</g><g
   transform="matrix(1.00604,0,0,1.0270827,-2.2645005,-3.1522955)"
   id="g15"
   style="fill:#af1e2d;fill-opacity:1">
		<path
   id="path17"
   style="fill:#af1e2d;fill-opacity:1"
   d="M 47.37793,17.942871 C 98.270019,31.578125 151.76562,38.849121 206.95996,38.849121 C 265.2207,38.849121 321.58936,30.748047 375,15.611328 C 428.41113,30.748047 484.7793,38.849121 543.04004,38.849121 C 598.23438,38.849121 651.73047,31.578613 702.62109,17.942871 C 716.88281,51.567383 726.78516,87.489258 731.61719,124.99902 L 18.381836,124.99902 C 23.214844,87.489258 33.116211,51.567383 47.37793,17.942871 z " />
	</g>



<path
   style="font-size:93.28099823px;font-style:normal;font-variant:normal;font-weight:normal;font-stretch:normal;text-align:center;line-height:125%;writing-mode:lr-tb;text-anchor:middle;fill:#ffffff;fill-opacity:1;font-family:Roadgeek 2005 Series C"
   d="M 183.53777,112.74918 L 183.53777,50.332876 L 192.29397,50.332876 L 192.29397,112.74918 L 183.53777,112.74918 z M 234.32652,112.74918 L 215.04301,70.921299 L 215.04301,112.74918 L 206.09918,112.74918 L 206.09918,50.332876 L 215.04301,50.332876 L 232.18297,87.782657 L 232.18297,50.332876 L 241.1268,50.332876 L 241.1268,112.74918 L 234.32652,112.74918 z M 270.23545,58.625673 L 270.23545,112.74918 L 261.20065,112.74918 L 261.20065,58.625673 L 249.83466,58.625673 L 249.83466,50.332876 L 281.60144,50.332876 L 281.60144,58.625673 L 270.23545,58.625673 z M 290.15862,112.74918 L 290.15862,50.332876 L 319.50325,50.332876 L 319.50325,59.09191 L 299.10244,59.09191 L 299.10244,74.833157 L 312.05195,74.833157 L 312.05195,83.404561 L 299.10244,83.404561 L 299.10244,103.99298 L 321.9254,103.99298 L 321.9254,112.74918 L 290.15862,112.74918 z M 358.17549,112.74918 L 349.88269,83.404561 L 341.31412,83.404561 L 341.31412,112.74918 L 332.3703,112.74918 L 332.3703,50.332876 L 351.0028,50.332876 C 353.42494,50.332938 355.64525,50.736632 357.66375,51.543959 C 359.6822,52.351409 361.42112,53.469623 362.88052,54.898605 C 364.33984,56.327702 365.45758,58.082256 366.23374,60.16227 C 367.00981,62.24239 367.39787,64.524779 367.39791,67.009442 C 367.39787,70.735604 366.65256,73.903088 365.16196,76.511902 C 363.67129,79.120788 361.43533,80.983372 358.4541,82.099661 L 367.39791,112.74918 L 358.17549,112.74918 z M 358.64173,67.009442 C 358.6417,64.587322 357.89637,62.662194 356.40576,61.234051 C 354.9151,59.806011 352.9587,59.091964 350.53656,59.09191 L 341.31412,59.09191 L 341.31412,74.833157 L 350.53656,74.833157 C 353.14444,74.833195 355.14727,74.165584 356.54506,72.830321 C 357.9428,71.495138 358.6417,69.554847 358.64173,67.009442 L 358.64173,67.009442 z M 409.6238,95.700188 C 409.62376,98.247459 409.17363,100.62319 408.27342,102.82739 C 407.37312,105.03161 406.13124,106.94111 404.54777,108.55587 C 402.96423,110.17066 401.13196,111.45945 399.05098,112.42224 C 396.96994,113.38505 394.71835,113.86645 392.29621,113.86645 C 389.56319,113.86645 387.11023,113.33861 384.93731,112.28294 C 382.76436,111.22727 380.93257,109.79918 379.44194,107.99867 C 377.9513,106.19815 376.80229,104.11761 375.9949,101.75704 C 375.18751,99.396471 374.78382,96.943507 374.78382,94.398132 L 383.54002,94.398132 C 383.54001,95.702101 383.71058,96.990416 384.05174,98.26308 C 384.39288,99.535774 384.92071,100.68479 385.63525,101.71013 C 386.34975,102.73548 387.25049,103.5585 388.33744,104.17919 C 389.42436,104.7999 390.74394,105.11026 392.29621,105.11025 C 393.47695,105.11026 394.61079,104.86198 395.69776,104.3654 C 396.78467,103.86886 397.7162,103.18561 398.49235,102.31567 C 399.26844,101.44574 399.88914,100.4365 400.35446,99.287953 C 400.81972,98.139428 401.05236,96.943507 401.05239,95.700188 C 401.05236,93.899691 400.67995,92.301024 399.93513,90.904183 C 399.19025,89.507385 397.8863,88.094455 396.02327,86.665389 C 395.71243,86.35459 395.58828,86.18354 395.65086,86.152242 C 395.71337,86.120997 395.52716,85.950421 395.09222,85.640517 C 394.65723,85.330665 393.74087,84.725124 392.34312,83.823891 C 390.94533,82.922716 388.66293,81.386119 385.49595,79.214097 C 382.95057,77.474265 381.04108,75.439684 379.76746,73.110348 C 378.49382,70.781091 377.85701,68.219622 377.85702,65.425936 C 377.85701,63.189556 378.2607,61.093379 379.0681,59.137398 C 379.87548,57.181525 381.00886,55.458243 382.46824,53.967548 C 383.92759,52.476971 385.62007,51.312324 387.54568,50.473601 C 389.47127,49.635002 391.55134,49.215671 393.7859,49.215607 C 396.0223,49.215671 398.08768,49.619366 399.98204,50.426692 C 401.87634,51.234143 403.52192,52.352357 404.91877,53.781337 C 406.31556,55.210436 407.4333,56.918555 408.272,58.9057 C 409.11062,60.892952 409.56122,63.066363 409.6238,65.425936 L 401.05239,65.425936 C 400.92917,63.2521 400.18433,61.513183 398.81786,60.209179 C 397.45135,58.90528 395.77402,58.253304 393.7859,58.25325 C 391.73707,58.253304 389.99863,58.936552 388.57055,60.302995 C 387.14245,61.669543 386.4284,63.377188 386.42842,65.425936 C 386.4284,66.978216 386.83209,68.282167 387.63951,69.337794 C 388.44687,70.393507 389.99911,71.573317 392.29621,72.877229 C 398.32127,76.355103 402.71547,79.895009 405.47882,83.496955 C 408.24211,87.09896 409.62376,91.166701 409.6238,95.700188 L 409.6238,95.700188 z M 435.62513,58.625673 L 435.62513,112.74918 L 426.59034,112.74918 L 426.59034,58.625673 L 415.22435,58.625673 L 415.22435,50.332876 L 446.99113,50.332876 L 446.99113,58.625673 L 435.62513,58.625673 z M 481.6321,112.74918 L 477.25401,95.700188 L 463.83827,95.700188 L 459.74164,112.74918 L 450.70398,112.74918 L 466.26044,50.332876 L 475.01948,50.332876 L 490.57593,112.74918 L 481.6321,112.74918 z M 470.45374,68.965371 L 466.07565,86.943996 L 475.01948,86.943996 L 470.45374,68.965371 z M 514.77201,58.625673 L 514.77201,112.74918 L 505.73722,112.74918 L 505.73722,58.625673 L 494.37123,58.625673 L 494.37123,50.332876 L 526.13801,50.332876 L 526.13801,58.625673 L 514.77201,58.625673 z M 534.6952,112.74918 L 534.6952,50.332876 L 564.03982,50.332876 L 564.03982,59.09191 L 543.63903,59.09191 L 543.63903,74.833157 L 556.58852,74.833157 L 556.58852,83.404561 L 543.63903,83.404561 L 543.63903,103.99298 L 566.46199,103.99298 L 566.46199,112.74918 L 534.6952,112.74918 z "
   id="text7023" />

<path
   style="font-size:373.12701416px;font-style:normal;font-variant:normal;font-weight:normal;font-stretch:normal;text-align:center;line-height:125%;writing-mode:lr-tb;text-anchor:middle;fill:#ffffff;fill-opacity:1;font-family:Roadgeek 2005 Series C"
   d="M 129.01748,440.43707 C 129.51024,431.99164 130.06745,424.66254 130.68912,418.44974 C 131.31077,412.23699 132.05561,406.64778 132.92367,401.68206 C 133.79171,396.71644 134.90993,391.93461 136.27835,387.33659 C 137.64673,382.73865 139.32406,377.70665 141.31035,372.24055 C 151.49943,346.16138 164.91431,325.4193 181.55506,310.01423 C 183.04848,308.77105 184.60261,307.46709 186.21748,306.10234 C 187.83219,304.73786 189.81847,303.18561 192.17629,301.44559 C 194.53395,299.70585 197.39016,297.5945 200.74493,295.11151 C 204.0995,292.62883 208.25967,289.64753 213.22544,286.16762 C 221.42816,280.45157 226.95673,275.6072 229.81116,271.6345 C 232.66536,267.66213 234.09251,262.57137 234.09263,256.36221 C 234.09251,251.63932 233.16192,247.16643 231.30087,242.94353 C 229.43957,238.721 226.95673,234.99486 223.85235,231.76506 C 220.74775,228.53569 217.02161,225.98842 212.67391,224.12324 C 208.326,222.25848 203.79057,221.326 199.06757,221.32578 C 194.10183,221.326 189.50764,222.25848 185.28499,224.12324 C 181.06222,225.98842 177.39671,228.53569 174.28849,231.76506 C 171.18015,234.99486 168.69543,238.721 166.8343,242.94353 C 164.97306,247.16643 164.04247,251.63932 164.04252,256.36221 L 129.01748,256.36221 C 129.26005,246.67365 131.18378,237.54402 134.78866,228.9733 C 138.39348,220.40299 143.30039,212.9488 149.5094,206.61072 C 155.71835,200.27309 163.04555,195.30362 171.49104,191.70232 C 179.93641,188.10152 189.12857,186.30098 199.06757,186.30072 C 208.75624,186.30098 217.76267,188.16406 226.08691,191.88995 C 234.41093,195.61634 241.74002,200.64646 248.07423,206.9803 C 254.40816,213.31459 259.37573,220.70624 262.97693,229.15524 C 266.57784,237.60467 268.37838,246.67365 268.37853,256.36221 C 268.37838,276.23264 261.29755,292.62693 247.13606,305.54512 C 245.89262,306.53838 244.58865,307.46897 243.22416,308.33688 C 241.85942,309.20507 240.55546,310.26074 239.31228,311.50392 L 230.73796,317.83801 L 221.79974,323.80819 L 212.11101,330.88142 C 208.13837,333.86094 204.22649,337.40134 200.37533,341.50266 C 196.52401,345.60417 192.79787,350.07707 189.19688,354.92134 C 185.59575,359.76581 182.42872,364.85845 179.69577,370.19933 C 176.96269,375.54033 174.72435,380.81871 172.98074,386.03451 C 171.49477,389.26415 170.44099,392.18289 169.81939,394.79078 C 169.19768,397.39875 168.39028,400.93915 167.39721,405.41202 L 268.37853,405.41202 L 268.37853,440.43707 L 129.01748,440.43707 z M 437.22658,367.03228 C 437.22643,378.95755 435.11505,390.32172 430.8925,401.12485 C 426.66964,411.92806 420.83213,420.93449 413.37996,428.14417 C 402.44778,439.31883 387.29302,444.90617 367.91563,444.90617 C 355.49758,444.90617 344.87826,442.67162 336.05762,438.20251 C 327.23687,433.73342 319.72203,427.15106 313.51309,418.45543 C 308.54738,411.49593 304.69805,403.54519 301.96505,394.60315 C 299.23201,385.6612 297.8655,376.47092 297.86552,367.03228 C 297.8655,354.60681 299.79113,343.11566 303.64239,332.55876 C 307.4936,322.00208 313.39176,312.74736 321.33686,304.79458 C 307.92572,290.14031 301.22018,272.87798 301.22019,253.00754 C 301.22018,243.31898 302.83497,234.3751 306.06458,226.17584 C 309.29413,217.97702 313.82768,210.95875 319.66521,205.12101 C 325.50268,199.28375 332.51905,194.68765 340.71435,191.33274 C 348.90955,187.97832 357.97662,186.30098 367.91563,186.30072 C 377.60429,186.30098 386.42308,187.97832 394.37205,191.33274 C 402.3208,194.68765 409.21398,199.28375 415.05162,205.12101 C 420.88899,210.95875 425.42253,217.97702 428.65226,226.17584 C 431.88169,234.3751 433.49648,243.31898 433.49663,253.00754 C 433.49648,263.18924 431.82104,272.69034 428.47031,281.51088 C 425.11928,290.33173 420.08918,298.09296 413.37996,304.79458 C 421.3249,312.24701 427.28561,321.37663 431.26207,332.18349 C 435.23825,342.99056 437.22643,354.60681 437.22658,367.03228 L 437.22658,367.03228 z M 398.47157,253.00754 C 398.47146,243.81177 395.55271,236.23248 389.71532,230.26968 C 383.87771,224.3073 376.61115,221.326 367.91563,221.32578 C 358.72717,221.326 351.15168,224.3073 345.18914,230.26968 C 339.2265,236.23248 336.2452,243.81177 336.24526,253.00754 C 336.2452,263.18924 339.2265,271.2613 345.18914,277.22372 C 351.15168,283.18648 358.72717,286.16777 367.91563,286.16762 C 376.61115,286.16777 383.87771,283.18648 389.71532,277.22372 C 395.55271,271.2613 398.47146,263.18924 398.47157,253.00754 L 398.47157,253.00754 z M 402.94068,367.03228 C 402.94056,353.3635 399.71098,342.494 393.25194,334.42373 C 386.79267,326.35367 378.34723,322.3186 367.91563,322.31848 C 357.48385,322.3186 349.03843,326.35367 342.57933,334.42373 C 336.12011,342.494 332.89052,353.3635 332.89057,367.03228 C 332.89052,379.7005 336.12011,390.009 342.57933,397.95781 C 349.03843,405.90672 357.48385,409.88114 367.91563,409.88111 C 378.34723,409.88114 386.79267,405.90672 393.25194,397.95781 C 399.71098,390.009 402.94056,379.7005 402.94068,367.03228 L 402.94068,367.03228 z M 620.98301,315.23387 C 620.98284,334.3613 619.92717,350.63239 617.81598,364.04719 C 615.70445,377.46216 612.03706,390.13219 606.81379,402.05733 C 600.60465,416.96197 592.84342,427.82957 583.53009,434.66021 C 574.21649,441.49085 562.47894,444.90617 548.3174,444.90617 C 533.41272,444.90617 521.30179,441.49085 511.98459,434.66021 C 502.66727,427.82957 494.90415,416.96197 488.69521,402.05733 C 483.47932,389.88201 479.81572,377.14943 477.70439,363.85956 C 475.59301,350.56984 474.53734,334.3613 474.53736,315.23387 C 474.53734,296.35687 475.59301,280.14833 477.70439,266.60817 C 479.81572,253.06838 483.47932,240.33579 488.69521,228.4104 C 495.15434,213.50602 503.04253,202.7616 512.35986,196.1771 C 521.67706,189.59311 533.6629,186.30098 548.3174,186.30072 C 562.72154,186.30098 574.51974,189.59311 583.71204,196.1771 C 592.90407,202.7616 600.60465,213.75619 606.81379,229.16093 C 609.30026,235.37012 611.47606,241.57911 613.34118,247.78789 C 615.20599,253.99707 616.69758,260.51688 617.81598,267.34733 C 618.93404,274.17815 619.74143,281.50725 620.23817,289.33466 C 620.73457,297.16238 620.98284,305.79544 620.98301,315.23387 L 620.98301,315.23387 z M 586.69713,315.23387 C 586.69699,308.27448 586.51126,301.9385 586.13991,296.22596 C 585.7683,290.51368 585.27173,285.23528 584.65021,280.39077 C 584.02842,275.54655 583.22103,270.88981 582.22801,266.42054 C 581.23476,261.95161 580.11653,257.48062 578.87335,253.00754 C 575.64365,241.8255 571.60666,233.74965 566.76242,228.77998 C 561.91793,223.81074 555.76959,221.326 548.3174,221.32578 C 532.91236,221.326 522.35558,231.63639 516.64702,252.257 C 513.65997,261.69575 511.60926,271.19685 510.49489,280.76034 C 509.3804,290.32415 508.82319,302.0617 508.82324,315.97304 C 508.82319,322.6825 509.00892,328.83272 509.38046,334.42373 C 509.75188,340.01494 510.24845,345.23269 510.87016,350.07698 C 511.49176,354.92143 512.29915,359.70326 513.29235,364.42246 C 514.28541,369.14182 515.40364,373.98428 516.64702,378.9499 C 522.35558,399.57075 532.91236,409.88114 548.3174,409.88111 C 555.76959,409.88114 561.91793,407.39642 566.76242,402.42692 C 571.60666,397.4575 575.64365,389.63183 578.87335,378.9499 C 580.35913,373.98428 581.60054,369.20436 582.5976,364.61009 C 583.5944,360.01598 584.40179,355.23415 585.0198,350.26461 C 585.63752,345.29524 586.07154,340.01494 586.32186,334.42373 C 586.57191,328.83272 586.69699,322.4361 586.69713,315.23387 L 586.69713,315.23387 z "
   id="text7029" />

</svg>