<?xml version="1.0" encoding="UTF-8" standalone="no"?>
<!-- Created with Inkscape (http://www.inkscape.org/) -->

<svg
   width="65.520287mm"
   height="45.205521mm"
   viewBox="0 0 65.520287 45.205521"
   version="1.1"
   id="svg1"
   xml:space="preserve"
   inkscape:export-filename="down-arrow.svg"
   inkscape:export-xdpi="96"
   inkscape:export-ydpi="96"
   xmlns:inkscape="http://www.inkscape.org/namespaces/inkscape"
   xmlns:sodipodi="http://sodipodi.sourceforge.net/DTD/sodipodi-0.dtd"
   xmlns="http://www.w3.org/2000/svg"
   xmlns:svg="http://www.w3.org/2000/svg"><sodipodi:namedview
     id="namedview1"
     pagecolor="#ffffff"
     bordercolor="#000000"
     borderopacity="0.25"
     inkscape:showpageshadow="2"
     inkscape:pageopacity="0.0"
     inkscape:pagecheckerboard="true"
     inkscape:deskcolor="#d1d1d1"
     inkscape:document-units="mm" /><defs
     id="defs1" /><g
     inkscape:label="Layer 1"
     inkscape:groupmode="layer"
     id="layer1"
     transform="translate(-65.931688,-28.5973)"><path
       id="path13"
       style="opacity:1;fill:#ffffff;fill-opacity:1;fill-rule:evenodd;stroke:none;stroke-width:1.14474;stroke-linecap:round;stroke-linejoin:round;stroke-opacity:1"
       d="m 91.688263,28.5973 v 9.01496 c 0,7.87085 -0.0552,9.01495 -0.4346,9.01495 -0.23899,0 -1.4299,-0.27291 -2.64687,-0.60616 -2.846322,-0.77945 -3.951287,-1.06173 -5.360912,-1.36943 -1.101273,-0.24039 -4.998251,-1.26286 -10.732162,-2.81585 -3.853296,-1.04364 -5.134675,-1.12323 -5.938138,-0.36948 -0.432737,0.40596 -0.643889,0.93611 -0.643889,1.61695 0,1.13173 0.362256,1.54315 5.138705,5.83427 1.488454,1.3372 2.969613,2.69228 3.291272,3.01067 0.321655,0.31841 2.645611,2.43944 5.164026,4.71341 2.518416,2.27395 4.642975,4.20259 4.721675,4.28604 0.0787,0.0835 1.366254,1.24643 2.860807,2.58434 1.494556,1.33789 3.053786,2.75462 3.464906,3.14813 0.70213,0.67205 4.61228,4.23897 6.83886,6.23838 0.5509,0.49471 1.13038,0.90165 1.28778,0.90433 0.15741,0.003 0.93019,-0.60807 1.717197,-1.35702 0.78701,-0.74893 2.84763,-2.63964 4.57905,-4.20129 1.73141,-1.56165 3.21242,-2.91092 3.29127,-2.99879 0.19002,-0.21167 2.94484,-2.73238 6.273,-5.74021 1.4804,-1.33791 2.83279,-2.56182 3.0055,-2.71922 0.17272,-0.1574 1.6649,-1.50805 3.31608,-3.00188 1.65117,-1.49383 3.26309,-2.97499 3.58221,-3.29127 0.31911,-0.31629 1.79824,-1.66966 3.28662,-3.00757 1.48838,-1.33791 2.92904,-2.69019 3.20187,-3.00499 1.16832,-1.34805 0.14955,-3.57704 -1.63504,-3.57704 -0.49829,0 -1.92479,0.2654 -3.16983,0.59014 -1.24504,0.32475 -4.19517,1.09064 -6.55619,1.70171 -2.36102,0.61107 -5.58059,1.45195 -7.1546,1.86862 -1.57402,0.41667 -3.76353,0.98186 -4.86533,1.25625 l -2.0035,0.4992 -0.0755,-9.11107 -0.0755,-9.11108 h -6.864177 z"
       inkscape:export-filename=".\path13.svg"
       inkscape:export-xdpi="96"
       inkscape:export-ydpi="96" /></g></svg>
