<?xml version="1.0" encoding="UTF-8" standalone="no"?>
<!-- Created with Inkscape (http://www.inkscape.org/) -->

<svg
   width="67.047813mm"
   height="66.268799mm"
   viewBox="0 0 67.047813 66.268799"
   version="1.1"
   id="svg1"
   xml:space="preserve"
   inkscape:export-filename="down-arrow.svg"
   inkscape:export-xdpi="96"
   inkscape:export-ydpi="96"
   xmlns:inkscape="http://www.inkscape.org/namespaces/inkscape"
   xmlns:sodipodi="http://sodipodi.sourceforge.net/DTD/sodipodi-0.dtd"
   xmlns="http://www.w3.org/2000/svg"
   xmlns:svg="http://www.w3.org/2000/svg"><sodipodi:namedview
     id="namedview1"
     pagecolor="#ffffff"
     bordercolor="#000000"
     borderopacity="0.25"
     inkscape:showpageshadow="2"
     inkscape:pageopacity="0.0"
     inkscape:pagecheckerboard="true"
     inkscape:deskcolor="#d1d1d1"
     inkscape:document-units="mm" /><defs
     id="defs1" /><g
     inkscape:label="Layer 1"
     inkscape:groupmode="layer"
     id="layer1"
     transform="translate(-75.014643,-7.0176593)"><path
       id="rect26"
       style="opacity:1;fill:#ffffff;fill-opacity:1;fill-rule:evenodd;stroke:none;stroke-width:0.794852;stroke-linecap:round;stroke-linejoin:round;stroke-opacity:1"
       d="m 139.36514,7.0176595 c -0.90762,0 -12.56657,2.1189128 -13.64568,2.479952 -0.3143,0.1051598 -4.04653,0.8316255 -8.29355,1.6143715 -4.24704,0.782746 -8.44063,1.580595 -9.31933,1.773019 -0.8787,0.192422 -5.15044,1.025662 -9.492444,1.851566 -4.342002,0.825903 -8.108512,1.59028 -8.370032,1.698605 -0.630428,0.261131 -1.142473,0.825232 -1.478463,1.629357 -0.367808,0.880305 -0.345713,1.474787 0.08682,2.368331 0.321808,0.664775 0.674841,0.933236 3.239595,2.465483 1.583161,0.945814 3.477314,2.099422 4.209562,2.563151 0.73224,0.463729 2.090386,1.301589 3.017904,1.861902 0.927508,0.560314 2.644698,1.615888 3.816298,2.345593 1.1716,0.729706 2.47016,1.497431 2.8851,1.706356 0.41494,0.208926 0.75396,0.428392 0.75396,0.487825 0,0.05943 -0.33902,0.368831 -0.75396,0.687297 -0.41494,0.318465 -1.62371,1.39397 -2.68614,2.390035 -4.301287,4.032584 -26.588752,22.887448 -27.299531,23.482556 -0.56139,0.470028 -1.02061,0.985227 -1.02061,1.144633 0,0.414535 13.46525,13.833272 13.765568,13.718026 0.13256,-0.05087 0.54462,-0.464737 0.91519,-0.919841 0.37057,-0.4551 1.432841,-1.638804 2.360579,-2.630847 8.810604,-9.577842 9.110184,-9.719854 17.903204,-19.314335 1.51949,-1.659447 3.36577,-3.656596 4.10311,-4.437972 0.73734,-0.781377 1.76851,-1.925204 2.29133,-2.541964 l 0.95085,-1.121378 0.53071,0.943611 c 0.29197,0.519126 1.12979,1.902634 1.86191,3.074231 0.73212,1.171594 2.08054,3.368561 2.9962,4.881873 3.94398,6.518245 5.15637,8.399593 5.63789,8.75037 0.67153,0.489177 2.32495,0.625012 3.04581,0.250114 0.79471,-0.413306 1.27392,-1.023884 1.4919,-1.900142 0.1093,-0.439349 0.82786,-4.153694 1.5968,-8.254277 0.76894,-4.100584 1.5556,-8.174497 1.74822,-9.053194 0.19261,-0.878696 1.00266,-5.152428 1.79989,-9.497095 0.79723,-4.344663 1.52135,-8.059009 1.6092,-8.254276 0.238,-0.529013 2.30327,-11.71191 2.40967,-13.047783 0.0718,-0.9010516 0.0209,-1.2890488 -0.23099,-1.7714678 -0.47934,-0.9180882 -1.34455,-1.4236857 -2.43654,-1.4236857 z"
       inkscape:export-filename="upright-arrow"
       inkscape:export-xdpi="96"
       inkscape:export-ydpi="96"
       sodipodi:nodetypes="sssssssssssssssssssssssccssssssssssccss" /></g></svg>
